<svg width="585" height="401" viewBox="0 0 585 401" fill="none" xmlns="http://www.w3.org/2000/svg">
<g filter="url(#filter0_d_6015_1275)">
<path d="M4 281C4 278.791 5.79086 277 8 277H104V377H24C12.9543 377 4 368.046 4 357V281Z" fill="black" style="fill:black;fill-opacity:1;"/>
<path d="M512.757 254.243C515.101 251.899 518.899 251.899 521.243 254.243L574.161 307.161C582.048 315.048 581.96 327.862 573.965 335.639L515 393C516.968 392.016 517.393 389.393 515.838 387.838L447.5 319.5L512.757 254.243Z" fill="black" style="fill:black;fill-opacity:1;"/>
<path d="M377 6H277V106H377V6Z" fill="black" style="fill:black;fill-opacity:1;"/>
<path d="M6.25872 281.29C4.97365 279.703 5.0909 277.402 6.5307 275.954L279.91 0.9104L381.868 102.868L108.73 376.006C107.19 377.546 104.701 377.571 103.131 376.063L12.4999 289L6.25872 281.29Z" fill="black" style="fill:black;fill-opacity:1;"/>
<path d="M285 383C280.582 383 277 379.418 277 375V7C277 3.134 280.134 0 284 0H386C397.046 0 406 8.95431 406 20V383H285Z" fill="black" style="fill:black;fill-opacity:1;"/>
<path d="M277 263C277 255.82 282.82 250 290 250H511C518.18 250 524 255.82 524 263V378C524 385.18 518.18 391 511 391H290C282.82 391 277 385.18 277 378V263Z" fill="black" style="fill:black;fill-opacity:1;"/>
</g>
<defs>
<filter id="filter0_d_6015_1275" x="0" y="0" width="584.019" height="401" filterUnits="userSpaceOnUse" color-interpolation-filters="sRGB">
<feFlood flood-opacity="0" result="BackgroundImageFix"/>
<feColorMatrix in="SourceAlpha" type="matrix" values="0 0 0 0 0 0 0 0 0 0 0 0 0 0 0 0 0 0 127 0" result="hardAlpha"/>
<feOffset dy="4"/>
<feGaussianBlur stdDeviation="2"/>
<feComposite in2="hardAlpha" operator="out"/>
<feColorMatrix type="matrix" values="0 0 0 0 0 0 0 0 0 0 0 0 0 0 0 0 0 0 0.25 0"/>
<feBlend mode="normal" in2="BackgroundImageFix" result="effect1_dropShadow_6015_1275"/>
<feBlend mode="normal" in="SourceGraphic" in2="effect1_dropShadow_6015_1275" result="shape"/>
</filter>
</defs>
</svg>
